<svg width="37" height="67" viewBox="0 0 37 67" fill="none" xmlns="http://www.w3.org/2000/svg">
<g clip-path="url(#clip0_6_458)">
<path fill-rule="evenodd" clip-rule="evenodd" d="M2.35136 9.52858C2.09563 11.6264 2.94695 13.6389 4.72871 15.7177C7.66088 19.1386 9.11953 25.0745 4.74198 30.4249C2.86666 32.717 2.57018 34.7148 2.84528 36.3654C3.13011 38.0744 4.04121 39.5118 4.79445 40.6416C5.98744 42.4311 7.24106 44.4017 7.53526 46.6713C7.83893 49.014 7.1115 51.5155 4.7368 54.3652C2.74848 56.7512 2.36604 58.7928 2.60732 60.3611C2.85419 61.9658 3.77606 63.216 4.62636 63.9355C5.00715 64.2577 5.05464 64.8276 4.73244 65.2084C4.41024 65.5892 3.84036 65.6367 3.45958 65.3145C2.35302 64.3781 1.14889 62.7606 0.82199 60.6358C0.489494 58.4746 1.08548 55.9252 3.34913 53.2088C5.49026 50.6394 5.96707 48.6251 5.74391 46.9035C5.51127 45.1088 4.50697 43.4668 3.29149 41.6436C2.53943 40.5155 1.41843 38.7918 1.06352 36.6623C0.698881 34.4745 1.15505 31.9564 3.34395 29.2811C7.05459 24.7458 5.84395 19.7945 3.35722 16.8932C1.39847 14.608 0.217617 12.1047 0.5583 9.30999C0.895578 6.54321 2.69853 3.72138 6.1609 0.720669C6.53784 0.393985 7.10824 0.434726 7.43493 0.811672C7.76161 1.18862 7.72087 1.75901 7.34392 2.0857C4.03252 4.95558 2.61049 7.40287 2.35136 9.52858Z" fill="#DE3F01"/>
<path fill-rule="evenodd" clip-rule="evenodd" d="M11.8279 9.52848C11.5722 11.6263 12.4235 13.6388 14.2053 15.7176C17.1374 19.1385 18.5961 25.0744 14.2185 30.4248C12.3432 32.7169 12.0467 34.7147 12.3218 36.3653C12.6067 38.0743 13.5178 39.5117 14.271 40.6415C15.464 42.431 16.7176 44.4016 17.0118 46.6712C17.3155 49.0139 16.5881 51.5154 14.2134 54.3651C12.225 56.7511 11.8426 58.7927 12.0839 60.361C12.3308 61.9657 13.2526 63.2159 14.1029 63.9354C14.4837 64.2576 14.5312 64.8275 14.209 65.2083C13.8868 65.5891 13.3169 65.6366 12.9361 65.3144C11.8296 64.378 10.6255 62.7605 10.2986 60.6357C9.96605 58.4745 10.562 55.9251 12.8257 53.2087C14.9668 50.6393 15.4436 48.625 15.2205 46.9034C14.9878 45.1087 13.9835 43.4667 12.7681 41.6435C12.016 40.5154 10.895 38.7917 10.5401 36.6622C10.1754 34.4744 10.6316 31.9563 12.8205 29.281C16.5312 24.7457 15.3205 19.7944 12.8338 16.8931C10.875 14.6079 9.69418 12.1046 10.0349 9.30989C10.3721 6.54311 12.1751 3.72128 15.6375 0.720566C16.0144 0.393882 16.5848 0.434623 16.9115 0.811569C17.2382 1.18851 17.1974 1.75891 16.8205 2.0856C13.5091 4.95548 12.0871 7.40277 11.8279 9.52848Z" fill="#DE3F01"/>
<path fill-rule="evenodd" clip-rule="evenodd" d="M21.3045 9.52848C21.0488 11.6263 21.9001 13.6388 23.6818 15.7176C26.614 19.1385 28.0727 25.0744 23.6951 30.4248C21.8198 32.7169 21.5233 34.7147 21.7984 36.3653C22.0832 38.0743 22.9943 39.5117 23.7476 40.6415C24.9406 42.431 26.1942 44.4016 26.4884 46.6712C26.7921 49.0139 26.0646 51.5154 23.6899 54.3651C21.7016 56.7511 21.3192 58.7927 21.5604 60.361C21.8073 61.9657 22.7292 63.2159 23.5795 63.9354C23.9603 64.2576 24.0078 64.8275 23.6856 65.2083C23.3634 65.5891 22.7935 65.6366 22.4127 65.3144C21.3061 64.378 20.102 62.7605 19.7751 60.6357C19.4426 58.4745 20.0386 55.9251 22.3023 53.2087C24.4434 50.6393 24.9202 48.625 24.697 46.9034C24.4644 45.1087 23.4601 43.4667 22.2446 41.6435C21.4926 40.5154 20.3716 38.7917 20.0166 36.6622C19.652 34.4744 20.1082 31.9563 22.2971 29.281C26.0077 24.7457 24.7971 19.7944 22.3103 16.8931C20.3516 14.6079 19.1707 12.1046 19.5114 9.30989C19.8487 6.54311 21.6517 3.72128 25.114 0.720566C25.491 0.393882 26.0614 0.434623 26.3881 0.811569C26.7147 1.18851 26.674 1.75891 26.297 2.0856C22.9856 4.95548 21.5636 7.40277 21.3045 9.52848Z" fill="#DE3F01"/>
<path fill-rule="evenodd" clip-rule="evenodd" d="M30.781 9.52848C30.5253 11.6263 31.3766 13.6388 33.1584 15.7176C36.0906 19.1385 37.5492 25.0744 33.1717 30.4248C31.2963 32.7169 30.9999 34.7147 31.275 36.3653C31.5598 38.0743 32.4709 39.5117 33.2241 40.6415C34.4171 42.431 35.6707 44.4016 35.9649 46.6712C36.2686 49.0139 35.5412 51.5154 33.1665 54.3651C31.1782 56.7511 30.7957 58.7927 31.037 60.361C31.2839 61.9657 32.2057 63.2159 33.0561 63.9354C33.4368 64.2576 33.4843 64.8275 33.1621 65.2083C32.8399 65.5891 32.27 65.6366 31.8893 65.3144C30.7827 64.378 29.5786 62.7605 29.2517 60.6357C28.9192 58.4745 29.5152 55.9251 31.7788 53.2087C33.9199 50.6393 34.3968 48.625 34.1736 46.9034C33.941 45.1087 32.9367 43.4667 31.7212 41.6435C30.9691 40.5154 29.8481 38.7917 29.4932 36.6622C29.1286 34.4744 29.5847 31.9563 31.7736 29.281C35.4843 24.7457 34.2736 19.7944 31.7869 16.8931C29.8282 14.6079 28.6473 12.1046 28.988 9.30989C29.3253 6.54311 31.1282 3.72128 34.5906 0.720566C34.9675 0.393882 35.5379 0.434623 35.8646 0.811569C36.1913 1.18851 36.1506 1.75891 35.7736 2.0856C32.4622 4.95548 31.0402 7.40277 30.781 9.52848Z" fill="#DE3F01"/>
</g>
<defs>
<clipPath id="clip0_6_458">
<rect width="36" height="66" fill="white" transform="translate(0.5 0.5)"/>
</clipPath>
</defs>
</svg>
