<svg width="86" height="47" viewBox="0 0 86 47" fill="none" xmlns="http://www.w3.org/2000/svg">
<g clip-path="url(#clip0_6_447)">
<path fill-rule="evenodd" clip-rule="evenodd" d="M72.8816 2.89296C70.1701 2.56242 67.5688 3.66277 64.8819 5.96577C60.4602 9.75571 52.7878 11.6411 45.8723 5.98293C42.9097 3.559 40.3275 3.17579 38.194 3.53136C35.9851 3.89951 34.1272 5.07716 32.6668 6.05074C30.3539 7.59272 27.8067 9.21308 24.8732 9.59333C21.8452 9.98585 18.6119 9.04561 14.9286 5.97623C11.8446 3.40625 9.20571 2.91192 7.17863 3.22379C5.10456 3.54288 3.48853 4.73443 2.55857 5.83348C2.14211 6.32566 1.40552 6.38704 0.913345 5.97058C0.42117 5.55413 0.359787 4.81754 0.776243 4.32536C1.98647 2.89509 4.0772 1.33872 6.8236 0.916181C9.61699 0.486418 12.9122 1.25675 16.4233 4.18262C19.7443 6.9501 22.3479 7.56639 24.5731 7.27795C26.8928 6.97725 29.0152 5.67916 31.3717 4.10811C32.8298 3.13605 35.0577 1.6871 37.8102 1.22837C40.6381 0.757061 43.8927 1.34667 47.3507 4.17592C53.2127 8.97206 59.6125 7.40726 63.3625 4.19307C66.3163 1.66131 69.5519 0.135009 73.1641 0.575355C76.7403 1.0113 80.3876 3.34169 84.2662 7.81693C84.6884 8.30414 84.6357 9.04141 84.1485 9.46366C83.6613 9.88591 82.924 9.83325 82.5018 9.34603C78.7924 5.06591 75.6292 3.22789 72.8816 2.89296Z" fill="#DE3F01"/>
<path fill-rule="evenodd" clip-rule="evenodd" d="M72.8816 15.1417C70.1701 14.8112 67.5688 15.9116 64.8819 18.2145C60.4602 22.0045 52.7878 23.8899 45.8723 18.2317C42.9097 15.8078 40.3275 15.4246 38.194 15.7801C35.9851 16.1483 34.1272 17.3259 32.6668 18.2995C30.3539 19.8415 27.8067 21.4619 24.8732 21.8421C21.8452 22.2346 18.6119 21.2944 14.9286 18.225C11.8446 15.655 9.20571 15.1607 7.17863 15.4726C5.10456 15.7917 3.48853 16.9832 2.55857 18.0823C2.14211 18.5744 1.40552 18.6358 0.913345 18.2194C0.42117 17.8029 0.359787 17.0663 0.776243 16.5741C1.98647 15.1439 4.0772 13.5875 6.8236 13.165C9.61699 12.7352 12.9122 13.5055 16.4233 16.4314C19.7443 19.1989 22.3479 19.8152 24.5731 19.5267C26.8928 19.226 29.0152 17.9279 31.3717 16.3569C32.8298 15.3848 35.0577 13.9359 37.8102 13.4771C40.6381 13.0058 43.8927 13.5954 47.3507 16.4247C53.2127 21.2208 59.6125 19.656 63.3625 16.4419C66.3163 13.9101 69.5519 12.3838 73.1641 12.8241C76.7403 13.2601 80.3876 15.5905 84.2662 20.0657C84.6884 20.5529 84.6357 21.2902 84.1485 21.7124C83.6613 22.1347 82.924 22.082 82.5018 21.5948C78.7924 17.3147 75.6292 15.4767 72.8816 15.1417Z" fill="#DE3F01"/>
<path fill-rule="evenodd" clip-rule="evenodd" d="M72.8816 27.3905C70.1701 27.06 67.5688 28.1603 64.8819 30.4633C60.4602 34.2533 52.7878 36.1386 45.8723 30.4805C42.9097 28.0566 40.3275 27.6733 38.194 28.0289C35.9851 28.3971 34.1272 29.5747 32.6668 30.5483C30.3539 32.0903 27.8067 33.7106 24.8732 34.0909C21.8452 34.4834 18.6119 33.5432 14.9286 30.4738C11.8446 27.9038 9.20571 27.4095 7.17863 27.7213C5.10456 28.0404 3.48853 29.232 2.55857 30.331C2.14211 30.8232 1.40552 30.8846 0.913345 30.4681C0.42117 30.0517 0.359787 29.3151 0.776243 28.8229C1.98647 27.3927 4.0772 25.8363 6.8236 25.4137C9.61699 24.984 12.9122 25.7543 16.4233 28.6802C19.7443 31.4477 22.3479 32.0639 24.5731 31.7755C26.8928 31.4748 29.0152 30.1767 31.3717 28.6057C32.8298 27.6336 35.0577 26.1847 37.8102 25.7259C40.6381 25.2546 43.8927 25.8442 47.3507 28.6735C53.2127 33.4696 59.6125 31.9048 63.3625 28.6906C66.3163 26.1589 69.5519 24.6326 73.1641 25.0729C76.7403 25.5089 80.3876 27.8393 84.2662 32.3145C84.6884 32.8017 84.6357 33.539 84.1485 33.9612C83.6613 34.3835 82.924 34.3308 82.5018 33.8436C78.7924 29.5635 75.6292 27.7255 72.8816 27.3905Z" fill="#DE3F01"/>
<path fill-rule="evenodd" clip-rule="evenodd" d="M72.8816 39.6393C70.1701 39.3088 67.5688 40.4091 64.8819 42.7121C60.4602 46.5021 52.7878 48.3874 45.8723 42.7293C42.9097 40.3053 40.3275 39.9221 38.194 40.2777C35.9851 40.6458 34.1272 41.8235 32.6668 42.7971C30.3539 44.3391 27.8067 45.9594 24.8732 46.3397C21.8452 46.7322 18.6119 45.792 14.9286 42.7226C11.8446 40.1526 9.20571 39.6583 7.17863 39.9701C5.10456 40.2892 3.48853 41.4808 2.55857 42.5798C2.14211 43.072 1.40552 43.1334 0.913345 42.7169C0.42117 42.3005 0.359787 41.5639 0.776243 41.0717C1.98647 39.6414 4.0772 38.0851 6.8236 37.6625C9.61699 37.2328 12.9122 38.0031 16.4233 40.929C19.7443 43.6964 22.3479 44.3127 24.5731 44.0243C26.8928 43.7236 29.0152 42.4255 31.3717 40.8544C32.8298 39.8824 35.0577 38.4334 37.8102 37.9747C40.6381 37.5034 43.8927 38.093 47.3507 40.9223C53.2127 45.7184 59.6125 44.1536 63.3625 40.9394C66.3163 38.4076 69.5519 36.8813 73.1641 37.3217C76.7403 37.7576 80.3876 40.088 84.2662 44.5633C84.6884 45.0505 84.6357 45.7877 84.1485 46.21C83.6613 46.6322 82.924 46.5796 82.5018 46.0924C78.7924 41.8123 75.6292 39.9742 72.8816 39.6393Z" fill="#DE3F01"/>
</g>
<defs>
<clipPath id="clip0_6_447">
<rect width="85" height="46" fill="white" transform="translate(0.5 0.5)"/>
</clipPath>
</defs>
</svg>
