<svg width="36" height="36" viewBox="0 0 36 36" fill="none" xmlns="http://www.w3.org/2000/svg">
<path d="M13.5 28.125C13.5 27.5037 14.0037 27 14.625 27H21.375C21.9963 27 22.5 27.5037 22.5 28.125C22.5 28.7463 21.9963 29.25 21.375 29.25H14.625C14.0037 29.25 13.5 28.7463 13.5 28.125Z" fill="white"/>
<path d="M6.75 18.1385C6.75 15.2109 9.5281 12.9704 12.4429 13.2431C14.0349 13.3921 15.9096 13.5 18 13.5C20.0904 13.5 21.9651 13.3921 23.5571 13.2431C26.4719 12.9704 29.25 15.2109 29.25 18.1385V20.7433C29.25 21.7757 28.5469 22.6688 27.5297 22.8457C25.6283 23.1763 22.2628 23.625 18 23.625C13.7372 23.625 10.3717 23.1763 8.47031 22.8457C7.45312 22.6688 6.75 21.7757 6.75 20.7433V18.1385ZM16.9694 16.2788C16.7919 16.2486 16.6107 16.3051 16.482 16.4309L14.4096 18.455C12.7737 18.3566 11.3537 18.2026 10.2014 18.0446C9.89362 18.0024 9.60991 18.2177 9.56771 18.5255C9.52552 18.8333 9.74081 19.117 10.0486 19.1592C11.2854 19.3287 12.8204 19.4933 14.5936 19.5926C14.7511 19.6014 14.9051 19.5436 15.018 19.4333L16.7145 17.7764L18.621 21.6247C18.7023 21.7889 18.8585 21.9032 19.0396 21.931C19.2206 21.9588 19.4039 21.8967 19.5308 21.7645L21.6279 19.5798C23.3076 19.4795 24.7664 19.3216 25.9514 19.1592C26.2592 19.117 26.4745 18.8333 26.4323 18.5255C26.3901 18.2177 26.1064 18.0024 25.7986 18.0446C24.5887 18.2105 23.0837 18.3719 21.3436 18.4693C21.2015 18.4773 21.0677 18.5388 20.9692 18.6414L19.2736 20.4079L17.379 16.5836C17.2991 16.4223 17.1468 16.309 16.9694 16.2788Z" fill="white"/>
<path d="M19.125 4.19899C19.7975 3.80995 20.25 3.08282 20.25 2.25C20.25 1.00736 19.2426 0 18 0C16.7574 0 15.75 1.00736 15.75 2.25C15.75 3.08282 16.2025 3.80995 16.875 4.19899V6.75H12.375C6.78312 6.75 2.25 11.2831 2.25 16.875V18C1.00736 18 0 19.0074 0 20.25V24.75C0 25.9926 1.00736 27 2.25 27V29.25C2.25 31.7353 4.26472 33.75 6.75 33.75H29.25C31.7353 33.75 33.75 31.7353 33.75 29.25V27C34.9926 27 36 25.9926 36 24.75V20.25C36 19.0074 34.9926 18 33.75 18V16.875C33.75 11.2831 29.2169 6.75 23.625 6.75H19.125V4.19899ZM31.5 16.875V29.25C31.5 30.4926 30.4926 31.5 29.25 31.5H6.75C5.50736 31.5 4.5 30.4926 4.5 29.25V16.875C4.5 12.5258 8.02576 9 12.375 9H23.625C27.9742 9 31.5 12.5258 31.5 16.875Z" fill="white"/>
</svg>
