<svg width="118" height="32" viewBox="0 0 118 32" fill="none" xmlns="http://www.w3.org/2000/svg">
<rect width="118" height="32" fill="#F5F5F5"/>
<g style="mix-blend-mode:luminosity" opacity="0.5">
<path d="M60.839 11.9118H58.4993V21.857H59.9275C60.4309 21.857 60.839 21.4481 60.839 20.9442V11.9118Z" fill="#003A85"/>
<path d="M60.8389 11.9118H58.4993V14.2546H60.8389V11.9118Z" fill="#E50816"/>
<path d="M41.5061 12.7639C40.8099 12.1484 39.8978 11.8359 38.9709 11.8942H34.8908V21.8568H36.3187C36.8222 21.8568 37.2303 21.4479 37.2303 20.9439V18.4493H38.9664C39.8931 18.508 40.8051 18.1953 41.5014 17.58C42.1101 16.9282 42.424 16.0537 42.3694 15.163C42.4251 14.2723 42.111 13.3979 41.5014 12.7465M38.2765 16.6065H37.2303V13.7374H38.2765C39.6264 13.7374 39.9084 14.5241 39.9084 15.1806C39.9084 15.837 39.6309 16.6236 38.2808 16.6236L38.2765 16.6065Z" fill="#003A85"/>
<path d="M49.4233 19.923H46.2545V17.8234H49.2454V15.8889H46.2545V13.8465H49.4233V11.912H43.9108V21.8572H48.5117C49.0152 21.8572 49.4233 21.4483 49.4233 20.9444V19.923Z" fill="#003A85"/>
<path d="M56.9932 19.9229H53.7942V11.9118H51.4545V21.857H56.0816C56.5849 21.857 56.993 21.4481 56.993 20.9442L56.9932 19.9229Z" fill="#003A85"/>
<path d="M65.4531 15.2673L70.6186 21.857H73.0277V11.9118H70.7011V18.5012L70.61 18.3843L65.5358 11.9118H63.1136V21.857H64.5417C65.045 21.857 65.4531 21.4481 65.4531 20.9442V15.2673Z" fill="#003A85"/>
<path d="M83.5928 18.7622C84.097 17.5565 84.097 16.1987 83.5928 14.9935C83.3461 14.4055 82.9912 13.8689 82.5468 13.4114C82.0977 12.9558 81.5697 12.5862 80.9884 12.3204C80.3929 12.0479 79.7456 11.9088 79.0917 11.9116H75.3106V21.8568H79.0917C79.7501 21.8613 80.402 21.7213 81.0013 21.4479C81.5843 21.1833 82.1128 20.8116 82.5597 20.3528C83.0046 19.8934 83.3581 19.3535 83.6012 18.7618M81.3007 18.1056C81.1681 18.4669 80.9611 18.7954 80.693 19.0704C80.4168 19.3479 80.0858 19.564 79.721 19.7055C79.3053 19.8647 78.8636 19.9428 78.4189 19.9358H77.646V13.8508H78.4189C78.8638 13.842 79.3059 13.9203 79.721 14.0813C80.0852 14.2231 80.4164 14.4392 80.693 14.7158C80.96 14.9926 81.1665 15.3209 81.3007 15.6805C81.4468 16.065 81.5205 16.4735 81.5178 16.8848C81.5198 17.3014 81.4463 17.715 81.3007 18.1056Z" fill="#003A85"/>
<path d="M95.9549 18.9537C96.4996 17.6281 96.4996 16.1407 95.9549 14.8156C95.6879 14.1892 95.3001 13.6216 94.8131 13.1464C94.3132 12.6634 93.7236 12.2839 93.0772 12.0292C91.6398 11.4907 90.0568 11.4907 88.6194 12.0292C85.9415 13.082 84.623 16.1093 85.6746 18.7909C86.204 20.1408 87.2709 21.2097 88.6194 21.7398C90.0568 22.2779 91.6398 22.2779 93.0772 21.7398C93.7236 21.4854 94.3137 21.1056 94.8131 20.6229C95.301 20.1478 95.6888 19.5802 95.9549 18.9537ZM93.6544 18.084C93.4959 18.4425 93.2691 18.7658 92.9859 19.0361C92.7027 19.3045 92.3715 19.5172 92.0092 19.6617C91.2574 19.9582 90.4212 19.9582 89.6695 19.6617C88.9389 19.3725 88.3518 18.8053 88.0375 18.084C87.7108 17.3192 87.7108 16.4541 88.0375 15.6891C88.3527 14.9686 88.9394 14.4015 89.6695 14.1113C90.4216 13.8162 91.257 13.8162 92.0092 14.1113C92.371 14.2565 92.7023 14.4688 92.9859 14.737C93.2691 15.0075 93.4959 15.3308 93.6544 15.6889C93.9811 16.4543 93.9811 17.3195 93.6544 18.084Z" fill="#003A85"/>
<path d="M103.551 11.9253H101.051V21.7791H103.551V11.9253Z" fill="#003A85"/>
<path d="M108.265 11.9253H105.765V21.7791H108.265V11.9253Z" fill="#003A85"/>
<path d="M112.979 11.9253H110.479V21.7791H112.979V11.9253Z" fill="#003A85"/>
<path d="M23.1364 10.5386C23.1364 10.5386 22.9323 10.3169 22.7718 10.1387C22.611 9.96035 17.5368 4.76196 17.5325 4.75315L16.9682 4.17064C16.4656 3.63892 15.6278 3.61567 15.0966 4.11893C15.079 4.13587 15.0618 4.1528 15.0451 4.17064L13.1744 6.08752H16.4169C16.5718 6.08594 16.7157 6.16722 16.7946 6.30043L17.016 6.66123C17.0974 6.79715 17.0536 6.97326 16.9179 7.05499C16.8739 7.08141 16.8239 7.09563 16.7727 7.09609H9.64559L10.9172 8.42639C11.2954 8.75806 11.7821 8.93914 12.2847 8.93485H17.7278C17.9134 8.94027 18.0865 9.02787 18.2011 9.17395C18.2617 9.24891 18.3154 9.32884 18.3618 9.41328C18.4511 9.53498 18.4245 9.70657 18.3025 9.79575C18.2493 9.83482 18.1841 9.85333 18.1188 9.84768H6.99789L7.80508 10.7169C8.14531 11.0028 8.57664 11.157 9.02059 11.1516H22.8717C23.0796 11.1351 23.2344 10.9527 23.2178 10.7443C23.2117 10.6686 23.1835 10.5975 23.1364 10.5386Z" fill="#34B3E8"/>
<path d="M9.27244 22.6C9.06388 22.6019 8.89613 22.7725 8.89793 22.9814C8.89861 23.0713 8.9313 23.1582 8.99015 23.2261C8.99015 23.2261 9.1942 23.4436 9.35474 23.6258C9.51798 23.8071 9.74953 23.9112 9.99304 23.9127H21.8343C22.2785 23.9184 22.7096 23.7642 23.0496 23.4783L23.857 22.6086L9.27244 22.6Z" fill="#34B3E8"/>
<path d="M7.07614 17.3671C5.41804 17.3671 4.90599 18.7927 5.66966 19.7748C6.00245 20.1801 6.36028 20.5633 6.74177 20.9227C6.87796 21.0753 7.02293 21.2207 7.1758 21.3571C7.41164 21.5782 7.72099 21.7037 8.04386 21.7091H23.9262C24.3731 21.7091 24.8046 21.5468 25.1417 21.253L26.1097 20.2661H10.579C10.4521 20.2675 10.3479 20.1657 10.3466 20.0381C10.3461 19.9857 10.3637 19.9336 10.3966 19.8925L10.6311 19.5838C10.7427 19.4371 10.9157 19.3501 11.0999 19.3492H26.2314C26.6907 19.3501 27.1342 19.1813 27.4771 18.8751L28.9616 17.3669L7.07614 17.3671Z" fill="#006BB5"/>
<path d="M11.6816 24.8296C11.425 24.8301 11.2171 25.0387 11.2171 25.2954C11.2171 25.4092 11.2588 25.519 11.3342 25.6041L15.1757 29.5979C15.6819 30.1301 16.5224 30.15 17.0537 29.6433C17.069 29.6289 17.0841 29.6137 17.0987 29.5979L18.9695 27.6682H15.7272C15.5723 27.67 15.4285 27.5887 15.3495 27.4553L15.1281 27.0945C15.044 26.963 15.0824 26.7885 15.2136 26.7041C15.2605 26.674 15.3153 26.6587 15.3712 26.6596H19.0955C19.5936 26.6601 20.0745 26.4792 20.4497 26.1511L21.7216 24.8211L11.6816 24.8296Z" fill="#34B3E8"/>
<path d="M26.5263 13.9939C26.194 13.5889 25.8359 13.2055 25.4542 12.8465C25.3183 12.693 25.1731 12.548 25.0202 12.4121C24.7843 12.1908 24.475 12.0653 24.1519 12.0597H4.77545L5.74339 13.0463C6.0834 13.3324 6.51472 13.4864 6.95867 13.481H21.63C21.757 13.4798 21.8611 13.5819 21.8625 13.7092C21.8629 13.7621 21.8453 13.8135 21.8124 13.8551L21.5779 14.1637C21.4654 14.3087 21.2925 14.3938 21.1092 14.394H2.30136L3.78586 15.9327C4.12496 16.2292 4.55967 16.3926 5.00993 16.3935H25.1198C26.7779 16.3935 27.2902 14.9677 26.5263 13.9854" fill="#006BB5"/>
</g>
</svg>
