<svg width="106" height="30" viewBox="0 0 106 30" fill="none" xmlns="http://www.w3.org/2000/svg">
<rect width="106" height="30" fill="#F5F5F5"/>
<g style="mix-blend-mode:luminosity" opacity="0.5">
<path d="M30.2964 23.2916C30.0168 23.2916 29.8157 23.1584 29.6933 22.8934L23.3241 8.46547C23.1808 8.07029 23.3207 7.87005 23.7432 7.86243H27.2723C27.5669 7.86243 27.7644 7.99536 27.8641 8.26142L32.0492 18.0733L36.2131 8.26142C36.3286 7.99557 36.5361 7.86243 36.8373 7.86243H40.3342C40.5421 7.86243 40.6837 7.91831 40.7586 8.02922C40.8346 8.14077 40.8325 8.28598 40.7537 8.46547L34.4061 22.8934C34.2909 23.1584 34.0945 23.2916 33.8138 23.2916H30.2964Z" fill="#004F9F"/>
<path d="M40.2352 23.2916C40.0406 23.2916 39.9088 23.2357 39.8368 23.1242C39.765 23.0135 39.7684 22.8712 39.8482 22.6991L46.1849 8.23899C46.3 7.98837 46.4998 7.86264 46.7875 7.86264H49.8861C50.1799 7.86264 50.3812 7.98837 50.4887 8.23899L56.8152 22.6991C56.8871 22.879 56.8848 23.0228 56.8097 23.1297C56.7345 23.238 56.6035 23.2916 56.4174 23.2916H53.0604C52.766 23.2916 52.5687 23.1584 52.4682 22.8934L51.5216 20.5797H45.1522L44.2052 22.8934C44.09 23.1584 43.8936 23.2916 43.6133 23.2916H40.2352ZM46.4105 17.3422H50.2406L48.3259 12.6078L46.4105 17.3422Z" fill="#004F9F"/>
<path d="M72.6499 22.6991C72.765 22.8646 72.7902 23.0037 72.7246 23.1189C72.6606 23.2342 72.5171 23.2914 72.2945 23.2914H68.5505C68.2857 23.2914 68.0806 23.1798 67.9373 22.9571L62.3682 17.4023L62.3855 22.7851C62.3855 23.1233 62.2173 23.2916 61.8797 23.2916H58.7491C58.3973 23.2916 58.2214 23.1233 58.2214 22.7851V8.37911C58.2214 8.04256 58.3973 7.87005 58.7491 7.86243H65.2475C67.2915 7.86243 68.9004 8.33445 70.073 9.27785C71.2459 10.2206 71.8322 11.5499 71.8322 13.2636C71.8322 15.5233 70.0201 16.5349 68.0976 17.4025L72.6499 22.6991ZM62.3851 11.2413V15.2971H64.8059C65.689 15.2971 66.3828 15.1233 66.8881 14.7753C67.3942 14.4273 67.6463 13.9236 67.6463 13.2634C67.6463 12.6182 67.4005 12.1193 66.9095 11.7675C66.4186 11.417 65.7529 11.2413 64.9143 11.2413H62.3851Z" fill="#004F9F"/>
<path d="M86.6222 7.86264C86.9739 7.86264 87.1496 8.03515 87.1496 8.37932V10.8211C87.1496 11.1587 86.9739 11.3274 86.6222 11.3274H82.1894V22.7853C82.1894 23.1235 82.0146 23.2918 81.6628 23.2918H78.5318C78.1947 23.2918 78.0262 23.1235 78.0262 22.7853V11.3274H73.5937C73.2417 11.3274 73.0658 11.1587 73.0658 10.8211V8.37911C73.0658 8.04256 73.2417 7.87005 73.5937 7.86243H86.6222V7.86264Z" fill="#004F9F"/>
<path d="M86.5881 23.2916C86.394 23.2916 86.2617 23.2357 86.1899 23.1242C86.1177 23.0135 86.1213 22.8712 86.2009 22.6991L92.5376 8.23899C92.6527 7.98837 92.8527 7.86264 93.1404 7.86264H96.2392C96.533 7.86264 96.7343 7.98837 96.8416 8.23899L103.168 22.6991C103.24 22.879 103.237 23.0228 103.163 23.1297C103.087 23.238 102.956 23.2916 102.77 23.2916H99.4131C99.1189 23.2916 98.9216 23.1584 98.8215 22.8934L97.8743 20.5797H91.5051L90.5583 22.8934C90.4431 23.1584 90.2465 23.2916 89.966 23.2916H86.5881ZM92.7632 17.3422H96.5933L94.679 12.6078L92.7632 17.3422Z" fill="#004F9F"/>
<path d="M19.3323 7.54959H3.88068V23.0014H19.3323V7.54959Z" fill="#004F9F"/>
<path d="M11.3332 19.8723L4.05173 7.58832L19.0656 7.54895L11.3332 19.8723Z" fill="#FFD100"/>
</g>
</svg>
